<?xml version="1.0" encoding="UTF-8" standalone="no"?>
<!-- Created with Inkscape (http://www.inkscape.org/) -->

<svg
   width="350"
   height="100"
   viewBox="0 0 92.604162 26.458333"
   version="1.1"
   id="svg5"
   xml:space="preserve"
   sodipodi:docname="logo-white.svg"
   inkscape:version="1.2.2 (732a01da63, 2022-12-09)"
   xmlns:inkscape="http://www.inkscape.org/namespaces/inkscape"
   xmlns:sodipodi="http://sodipodi.sourceforge.net/DTD/sodipodi-0.dtd"
   xmlns="http://www.w3.org/2000/svg"
   xmlns:svg="http://www.w3.org/2000/svg"><sodipodi:namedview
     id="namedview7"
     pagecolor="#ffffff"
     bordercolor="#000000"
     borderopacity="0.25"
     inkscape:showpageshadow="2"
     inkscape:pageopacity="0.0"
     inkscape:pagecheckerboard="0"
     inkscape:deskcolor="#d1d1d1"
     inkscape:document-units="px"
     showgrid="false"
     inkscape:zoom="2.42"
     inkscape:cx="183.05785"
     inkscape:cy="40.082645"
     inkscape:window-width="1920"
     inkscape:window-height="1017"
     inkscape:window-x="-8"
     inkscape:window-y="-8"
     inkscape:window-maximized="1"
     inkscape:current-layer="layer1" /><defs
     id="defs2" /><g
     inkscape:label="Layer 1"
     inkscape:groupmode="layer"
     id="layer1"><text
       xml:space="preserve"
       style="font-weight:bold;font-size:98.9977px;font-family:Corbel;-inkscape-font-specification:'Corbel Bold';text-align:center;text-anchor:middle;fill:#f9f9f9;stroke-width:4.67706"
       x="15.647414"
       y="15.442873"
       id="text220"
       transform="scale(0.93541439,1.0690449)"><tspan
         sodipodi:role="line"
         id="tspan218"
         style="stroke-width:4.67707;fill:#f9f9f9"
         x="15.647414"
         y="15.442873" /></text><text
       xml:space="preserve"
       style="font-style:normal;font-variant:normal;font-weight:bold;font-stretch:normal;font-size:24.7495px;font-family:'Segoe Script';-inkscape-font-specification:'Segoe Script Bold';text-align:center;text-anchor:middle;fill:#f9f9f9;stroke-width:4.67706"
       x="39.987839"
       y="20.045053"
       id="text224"
       transform="scale(0.93541439,1.0690449)"><tspan
         sodipodi:role="line"
         id="tspan222"
         style="font-style:normal;font-variant:normal;font-weight:bold;font-stretch:normal;font-size:24.7495px;font-family:'Segoe Script';-inkscape-font-specification:'Segoe Script Bold';stroke-width:4.67707;fill:#f9f9f9"
         x="39.987839"
         y="20.045053" /></text><path
       style="fill:#f9f9f9;stroke-width:1.79818"
       d="M 0.08435919,17.840372 C 0.03796167,17.814138 0,13.78932 0,8.8963358 V 0 h 2.4675072 2.467507 V 8.9440373 17.888075 H 2.5518665 c -1.3107317,0 -2.42110948,-0.02147 -2.46750731,-0.0477 z"
       id="path381" /><path
       style="fill:#f9f9f9;stroke-width:1.79818"
       d="m 20.476171,17.956185 c -0.02432,-0.04124 -0.370716,-0.09405 -0.769779,-0.117339 -0.399063,-0.02329 -0.725568,-0.07004 -0.725568,-0.103886 0,-0.03385 -0.142357,-0.06155 -0.316347,-0.06155 -0.173992,0 -0.316348,-0.0322 -0.316348,-0.07155 0,-0.03935 -0.199298,-0.07155 -0.442885,-0.07155 -0.309318,0 -0.442887,-0.03237 -0.442887,-0.107328 0,-0.06678 -0.119509,-0.107329 -0.316347,-0.107329 -0.173991,0 -0.316347,-0.0322 -0.316347,-0.07155 0,-0.03935 -0.05681,-0.07155 -0.126245,-0.07155 -0.06943,0 -0.403656,-0.112695 -0.742711,-0.250433 -0.339056,-0.137739 -0.651148,-0.250434 -0.693539,-0.250434 -0.09578,0 -2.360208,-1.270184 -2.360208,-1.323912 0,-0.05279 -0.823934,-0.755746 -1.069068,-0.912097 -0.107972,-0.06887 -0.196321,-0.187713 -0.196321,-0.264098 0,-0.07638 -0.05695,-0.158782 -0.126539,-0.183104 -0.0696,-0.02432 -0.126538,-0.105014 -0.126538,-0.179316 0,-0.0743 -0.142356,-0.28649 -0.316347,-0.471524 -0.219491,-0.233426 -0.316347,-0.449274 -0.316347,-0.704999 0,-0.202714 -0.06022,-0.402622 -0.133819,-0.44424 -0.217112,-0.122767 0.0231,-2.8019694 0.258808,-2.8865956 0.14627,-0.05252 0.507705,-0.568117 0.507705,-0.7242616 0,-0.073902 0.05695,-0.1343664 0.126538,-0.1343664 0.0696,0 0.126539,-0.112695 0.126539,-0.2504332 0,-0.1377381 0.061,-0.2504325 0.135578,-0.2504325 0.218993,0 0.497117,-0.1930162 0.497117,-0.3449952 0,-0.077308 0.08274,-0.158515 0.183878,-0.1804601 0.101133,-0.021944 0.342059,-0.1783324 0.535389,-0.3475286 0.378551,-0.3312944 1.901433,-1.202033 2.102301,-1.202033 0.06722,0 0.310174,-0.1126948 0.539906,-0.2504331 0.229733,-0.1377381 0.524016,-0.250433 0.653962,-0.250433 0.129948,0 0.290364,-0.028222 0.35648,-0.062715 0.297459,-0.155187 1.361204,-0.4381505 1.64714,-0.4381505 0.173705,0 0.348604,-0.048298 0.388665,-0.1073285 0.04006,-0.059031 0.209099,-0.1073283 0.375644,-0.1073283 0.166545,0 0.30281,-0.029747 0.30281,-0.066104 0,-0.076275 1.598775,-0.154701 3.163471,-0.15518 1.514002,-4.675e-4 3.036931,0.077457 3.036931,0.1553845 0,0.036245 0.135384,0.065899 0.300852,0.065899 0.16547,0 0.37174,0.048298 0.458381,0.1073283 0.08664,0.059031 0.293683,0.1073285 0.460095,0.1073285 0.266135,0 0.74854,0.1111158 0.931928,0.214657 0.142302,0.080345 0.91809,0.2862091 1.078563,0.2862091 0.09481,0 0.246787,0.056907 0.337729,0.1264601 0.09093,0.069553 0.325696,0.1843826 0.52168,0.2551768 0.870199,0.3143378 2.61733,1.3023928 2.61733,1.480178 0,0.03284 0.142354,0.1230288 0.316347,0.2004182 0.17399,0.077389 0.316345,0.1905208 0.316345,0.2514037 0,0.060884 0.05694,0.1305955 0.126541,0.1549175 0.06959,0.024319 0.126538,0.09563 0.126538,0.1584613 0,0.062834 0.142357,0.2197767 0.316348,0.3487656 0.173989,0.1289881 0.316347,0.3122224 0.316347,0.4071857 0,0.1843985 0.317808,0.5939173 0.514166,0.6625383 0.0652,0.022781 0.118526,0.2469116 0.118526,0.498066 0,0.251155 0.05694,0.476544 0.126538,0.500866 0.07189,0.02512 0.126541,0.382356 0.126541,0.827075 0,0.4742 -0.04989,0.782852 -0.126541,0.782852 -0.07212,0 -0.126538,0.212105 -0.126538,0.493211 0,0.372403 -0.04649,0.503299 -0.189806,0.534397 -0.104396,0.02265 -0.189811,0.104693 -0.189811,0.182313 0,0.07762 -0.05694,0.161027 -0.126537,0.185349 -0.0696,0.02432 -0.126538,0.136234 -0.126538,0.248693 0,0.112459 -0.04271,0.215204 -0.09491,0.228323 -0.13752,0.03456 -0.53779,0.482673 -0.53779,0.602067 0,0.05584 -0.05694,0.10153 -0.126538,0.10153 -0.06961,0 -0.126541,0.04984 -0.126541,0.110745 0,0.06091 -0.142355,0.185346 -0.316345,0.276526 -0.173993,0.09118 -0.317441,0.194288 -0.318776,0.229128 -0.0013,0.03484 -0.200635,0.19179 -0.442886,0.348775 -0.24225,0.156985 -0.440457,0.304487 -0.440457,0.327782 0,0.0233 -0.142358,0.08544 -0.316348,0.13809 -0.17399,0.05266 -0.317722,0.130541 -0.319404,0.173083 -0.0015,0.04254 -0.34196,0.206144 -0.756176,0.363559 -0.414217,0.157415 -0.754497,0.310358 -0.756178,0.339873 -0.0015,0.02952 -0.07962,0.05366 -0.173182,0.05366 -0.09357,0 -0.335575,0.08046 -0.537789,0.178794 -0.202216,0.09834 -0.460341,0.178832 -0.573613,0.178881 -0.113273,4.7e-5 -0.276837,0.04838 -0.363476,0.107415 -0.08664,0.05903 -0.265211,0.107329 -0.396827,0.107329 -0.131615,0 -0.338177,0.02844 -0.459027,0.06321 -0.549007,0.157922 -0.898877,0.218243 -1.516608,0.261477 -0.365303,0.02557 -0.696083,0.07567 -0.735066,0.111336 -0.10215,0.09346 -3.946434,0.08372 -4.001764,-0.01014 z m 3.831476,-2.827476 c 0.23688,-0.06156 0.529569,-0.142059 0.650418,-0.178881 0.12085,-0.03682 0.297165,-0.06695 0.39181,-0.06695 0.247536,0 0.86455,-0.184139 1.188038,-0.354554 0.152754,-0.08047 0.329568,-0.146312 0.392916,-0.146312 0.183132,0 1.287329,-0.652497 1.287329,-0.760714 0,-0.05385 0.05585,-0.09791 0.124128,-0.09791 0.06828,0 0.159854,-0.0805 0.203527,-0.17888 0.04367,-0.09839 0.130165,-0.178881 0.192219,-0.178881 0.06205,0 0.112821,-0.0483 0.112821,-0.107329 0,-0.05903 0.05694,-0.107328 0.126541,-0.107328 0.06959,0 0.126538,-0.09889 0.126538,-0.219768 0,-0.120872 0.08542,-0.268066 0.189806,-0.327096 0.104396,-0.05903 0.18981,-0.215824 0.18981,-0.348428 0,-0.132605 0.05695,-0.260999 0.126539,-0.285321 0.06959,-0.02432 0.12654,-0.28191 0.12654,-0.572419 0,-0.290507 -0.05694,-0.548096 -0.12654,-0.572418 -0.0696,-0.02432 -0.126539,-0.151073 -0.126539,-0.281671 0,-0.130597 -0.08542,-0.277532 -0.18981,-0.326523 -0.104396,-0.048993 -0.189806,-0.1817281 -0.189806,-0.2949708 0,-0.1132428 -0.05694,-0.2058959 -0.126538,-0.2058959 -0.06959,0 -0.126541,-0.064398 -0.126541,-0.143104 0,-0.078708 -0.0531,-0.1431046 -0.11801,-0.1431046 -0.06491,0 -0.15783,-0.072447 -0.206496,-0.1609928 C 28.47768,8.9807119 28.246076,8.8020702 28.011668,8.6722757 27.777256,8.5424813 27.585465,8.4194375 27.585465,8.3988439 c 0,-0.059915 -0.351383,-0.2418782 -0.467083,-0.2418782 -0.05806,0 -0.212446,-0.080496 -0.343109,-0.1788808 -0.130663,-0.098384 -0.343475,-0.1788802 -0.47292,-0.1788802 -0.129444,0 -0.235354,-0.032199 -0.235354,-0.071552 0,-0.039352 -0.136264,-0.071552 -0.302807,-0.071552 -0.166546,0 -0.335584,-0.048298 -0.375648,-0.1073285 -0.04214,-0.062094 -0.231355,-0.1073284 -0.448954,-0.1073284 -0.206868,0 -0.407594,-0.028796 -0.446065,-0.063992 C 24.347686,7.2440186 21.92706,7.1063492 21.725979,7.220052 c -0.07614,0.043056 -0.354835,0.078289 -0.619302,0.078289 -0.264465,0 -0.480846,0.032199 -0.480846,0.071552 0,0.039352 -0.195232,0.071552 -0.433847,0.071552 -0.238617,0 -0.519262,0.048298 -0.623656,0.1073285 -0.104397,0.059031 -0.250818,0.1073285 -0.325386,0.1073285 -0.07457,0 -0.135578,0.032199 -0.135578,0.071552 0,0.039352 -0.115669,0.071552 -0.257049,0.071552 -0.141377,0 -0.289825,0.048298 -0.329885,0.1073285 -0.04006,0.059031 -0.135965,0.1073278 -0.213125,0.1073278 -0.167679,0 -1.351101,0.646683 -1.351101,0.7383119 0,0.03517 -0.142356,0.1272624 -0.316347,0.2046518 -0.17399,0.077389 -0.316346,0.1871053 -0.316346,0.243814 0,0.056708 -0.05328,0.1590163 -0.1184,0.2273514 -0.341244,0.3580921 -0.514295,0.6323206 -0.514295,0.8149846 0,0.112016 -0.05695,0.203665 -0.126539,0.203665 -0.07628,0 -0.126539,0.296727 -0.126539,0.747076 0,0.420868 0.05526,0.766386 0.126539,0.791298 0.0696,0.02432 0.126539,0.137017 0.126539,0.250433 0,0.113416 0.05695,0.226111 0.126539,0.250433 0.06959,0.02432 0.126539,0.09546 0.126539,0.158084 0,0.171375 0.649641,0.887593 0.843176,0.929587 0.09303,0.02018 0.169134,0.06697 0.169134,0.103977 0,0.212301 2.173142,1.187457 2.674487,1.200124 0.11384,0.0029 0.370079,0.05333 0.569424,0.112117 0.199345,0.05879 0.462096,0.107086 0.583889,0.107329 0.121794,2.08e-4 0.221443,0.03264 0.221443,0.07199 0,0.123725 2.802626,0.08946 3.302203,-0.04038 z"
       id="path383" /><path
       style="fill:#f9f9f9;stroke-width:1.79818"
       d="m 49.503325,17.921129 c -0.101873,-0.06531 -0.39893,-0.104607 -0.790869,-0.104607 -0.345236,0 -0.627704,-0.0322 -0.627704,-0.07155 0,-0.03935 -0.142357,-0.07155 -0.316347,-0.07155 -0.17399,0 -0.316349,-0.0322 -0.316349,-0.07155 0,-0.03935 -0.193205,-0.07155 -0.429346,-0.07155 -0.264912,0 -0.457241,-0.04111 -0.502184,-0.107328 -0.04006,-0.05903 -0.188507,-0.107329 -0.329885,-0.107329 -0.141378,0 -0.257047,-0.0322 -0.257047,-0.07155 0,-0.03935 -0.08249,-0.07155 -0.183291,-0.07155 -0.100808,0 -0.336893,-0.0805 -0.524633,-0.17888 -0.187738,-0.09839 -0.415288,-0.178881 -0.505667,-0.178881 -0.09038,0 -0.444581,-0.160992 -0.787117,-0.357761 -0.342537,-0.196769 -0.715815,-0.357762 -0.829509,-0.357762 -0.11369,0 -0.206716,-0.05666 -0.206716,-0.125898 0,-0.06925 -0.198069,-0.222188 -0.440152,-0.339874 -0.242082,-0.117686 -0.441382,-0.254223 -0.442886,-0.303415 -0.0015,-0.04919 -0.04673,-0.08944 -0.100496,-0.08944 -0.05377,0 -0.205092,-0.112695 -0.336272,-0.250433 -0.131181,-0.137739 -0.280314,-0.250434 -0.331404,-0.250434 -0.0511,0 -0.128627,-0.0805 -0.172296,-0.17888 -0.04367,-0.09839 -0.135255,-0.178881 -0.203525,-0.178881 -0.06828,0 -0.124128,-0.06249 -0.124128,-0.138882 0,-0.07638 -0.05694,-0.158781 -0.126538,-0.183104 -0.06959,-0.02432 -0.12654,-0.120208 -0.12654,-0.213081 0,-0.171715 -0.364934,-0.625956 -0.537791,-0.669397 -0.05219,-0.01311 -0.09491,-0.196359 -0.09491,-0.407203 0,-0.210843 -0.05694,-0.403251 -0.12654,-0.427574 -0.0758,-0.02649 -0.126539,-0.501608 -0.126539,-1.184835 0,-0.712708 0.04748,-1.140614 0.126539,-1.140614 0.07004,0 0.12654,-0.1882549 0.12654,-0.4216586 0,-0.3088016 0.0508,-0.4326818 0.189808,-0.4628447 0.104395,-0.02265 0.189809,-0.1065936 0.189809,-0.186536 0,-0.079942 0.05694,-0.14535 0.126537,-0.14535 0.0696,0 0.126539,-0.112695 0.126539,-0.2504332 0,-0.1377382 0.05694,-0.2504331 0.12654,-0.2504331 0.0696,0 0.126538,-0.080496 0.126538,-0.1788809 0,-0.098384 0.06101,-0.1788801 0.135578,-0.1788801 0.223306,0 0.497116,-0.1942395 0.497116,-0.3526511 0,-0.081518 0.06491,-0.1482152 0.144224,-0.1482152 0.17593,0 0.478923,-0.2154365 0.484447,-0.3444528 0.0054,-0.128248 1.999945,-1.2296979 2.226682,-1.2296979 0.09987,0 0.18158,-0.032198 0.18158,-0.071552 0,-0.039354 0.08542,-0.071552 0.189805,-0.071552 0.104397,0 0.189812,-0.034499 0.189812,-0.076663 0,-0.1262703 0.343505,-0.2810984 0.623655,-0.2810984 0.144164,0 0.262115,-0.032198 0.262115,-0.071552 0,-0.039354 0.115669,-0.071552 0.257051,-0.071552 0.141375,0 0.289825,-0.048298 0.329882,-0.1073285 0.04006,-0.059031 0.209104,-0.1073285 0.375646,-0.1073285 0.166546,0 0.302809,-0.032198 0.302809,-0.071552 0,-0.039353 0.172615,-0.071552 0.383589,-0.071552 0.224235,0 0.413846,-0.044587 0.456423,-0.1073285 0.04006,-0.059031 0.209103,-0.1073283 0.375645,-0.1073283 0.166547,0 0.30281,-0.032199 0.30281,-0.071552 0,-0.041694 0.419307,-0.071552 1.004843,-0.071552 0.552664,0 1.040034,-0.032198 1.083047,-0.071552 0.04301,-0.039353 0.498554,-0.071552 1.012312,-0.071552 0.513757,0 0.969297,0.032199 1.012309,0.071552 0.04301,0.039354 0.530386,0.071552 1.08305,0.071552 0.585534,0 1.004841,0.029858 1.004841,0.071552 0,0.039353 0.106919,0.071552 0.237586,0.071552 0.130669,0 0.308468,0.048298 0.395108,0.1073283 0.08664,0.059031 0.321383,0.1073285 0.52165,0.1073285 0.200267,0 0.364122,0.032198 0.364122,0.071552 0,0.039354 0.142356,0.071552 0.316347,0.071552 0.173991,0 0.316348,0.026002 0.316348,0.057782 0,0.03178 0.242006,0.1174827 0.537791,0.1904502 0.295781,0.072967 0.663189,0.2079581 0.816456,0.2999792 0.220645,0.1324717 0.411678,0.1673113 0.917408,0.1673113 0.483409,0 0.638737,-0.026101 0.638737,-0.1073285 0,-0.059031 0.04898,-0.1073285 0.10884,-0.1073285 0.05986,0 0.320158,-0.1126948 0.578436,-0.250433 0.258279,-0.1377381 0.550955,-0.2504331 0.650393,-0.2504331 0.09944,0 0.1808,-0.032198 0.1808,-0.071552 0,-0.039353 0.142355,-0.071552 0.316348,-0.071552 0.196838,0 0.316345,-0.040547 0.316345,-0.1073285 0,-0.066782 0.11951,-0.1073283 0.316346,-0.1073283 0.17399,0 0.316349,-0.028211 0.316349,-0.062692 0,-0.03448 0.298948,-0.080096 0.664328,-0.1013667 0.36538,-0.021271 0.79245,-0.061212 0.94904,-0.088758 l 0.284715,-0.050083 v 1.3678388 c 0,1.2517289 -0.01879,1.3685686 -0.221443,1.3764311 -0.121795,0.00471 -0.620042,0.012971 -1.107217,0.018325 -0.670683,0.00737 -0.95224,0.042598 -1.159508,0.1451001 -0.264984,0.1310431 -0.267009,0.1436092 -0.06327,0.3931039 0.115756,0.1417532 0.253174,0.2684665 0.305373,0.2815843 0.05219,0.013122 0.0949,0.1016636 0.0949,0.1967683 0,0.095105 0.05694,0.1729181 0.126541,0.1729181 0.0696,0 0.126538,0.044359 0.126538,0.098567 0,0.054215 0.08542,0.1386511 0.189807,0.1876419 0.104396,0.048992 0.18981,0.1978272 0.18981,0.3307467 0,0.1329194 0.05694,0.241672 0.126538,0.241672 0.0696,0 0.126538,0.065406 0.126538,0.1453501 0,0.079942 0.08542,0.1638841 0.189809,0.1865359 0.150078,0.032565 0.189807,0.181869 0.189807,0.7132777 0,0.400359 0.05115,0.672091 0.126542,0.672091 0.0696,0 0.126537,0.177092 0.126537,0.393538 0,0.216445 -0.05694,0.393538 -0.126537,0.393538 -0.07312,0 -0.128239,0.234062 -0.130565,0.55453 -0.0028,0.373792 -0.06458,0.599799 -0.189807,0.693423 -0.102185,0.07639 -0.185786,0.213234 -0.185786,0.304096 0,0.09086 -0.05694,0.165206 -0.126538,0.165206 -0.06959,0 -0.126538,0.112694 -0.126538,0.250433 0,0.174905 -0.05724,0.250432 -0.18981,0.250432 -0.118101,0 -0.189807,0.06758 -0.189807,0.178881 0,0.09838 -0.05694,0.178881 -0.126538,0.178881 -0.06959,0 -0.126541,0.04569 -0.126541,0.10153 0,0.127685 -0.410493,0.541382 -0.537789,0.541989 -0.0522,2.07e-4 -0.09491,0.04111 -0.09491,0.0908 0,0.04969 -0.142358,0.150795 -0.316349,0.224679 -0.17399,0.07388 -0.316347,0.178351 -0.316347,0.23215 0,0.09649 -1.710809,1.09837 -1.876139,1.098696 -0.04687,7.2e-5 -0.28451,0.09661 -0.528098,0.214488 -0.243586,0.117877 -0.542534,0.214397 -0.664329,0.214489 -0.121794,7.2e-5 -0.221443,0.04847 -0.221443,0.107497 0,0.05903 -0.08542,0.107328 -0.18981,0.107328 -0.104396,0 -0.189806,0.0322 -0.189806,0.07155 0,0.03935 -0.138291,0.07155 -0.307308,0.07155 -0.169021,0 -0.392722,0.0483 -0.497119,0.107328 -0.104396,0.05903 -0.30776,0.107329 -0.451921,0.107329 -0.144167,0 -0.262118,0.0322 -0.262118,0.07155 0,0.03935 -0.159439,0.07155 -0.354309,0.07155 -0.19487,0 -0.408404,0.02866 -0.47452,0.06369 -0.06612,0.03503 -0.432436,0.0817 -0.814039,0.103705 -0.381604,0.02201 -0.713772,0.07384 -0.738144,0.115187 -0.02839,0.04815 -0.711624,0.0742 -1.900217,0.07245 -1.464967,-0.0022 -1.890274,-0.02476 -2.019067,-0.107328 z m 3.769519,-2.752042 c 0,-0.03935 0.142358,-0.07155 0.316348,-0.07155 0.196838,0 0.316348,-0.04055 0.316348,-0.107327 0,-0.07027 0.124375,-0.107329 0.360174,-0.107329 0.404207,0 1.15829,-0.189743 1.15829,-0.29145 0,-0.03647 0.05953,-0.06631 0.132291,-0.06631 0.07276,0 0.274647,-0.0805 0.448637,-0.17888 0.17399,-0.09838 0.37744,-0.178881 0.452105,-0.178881 0.177314,0 0.860416,-0.43892 0.863028,-0.55453 0.0013,-0.0492 0.05897,-0.08944 0.12856,-0.08944 0.0696,0 0.126541,-0.0805 0.126541,-0.17888 0,-0.111305 0.0717,-0.178881 0.189806,-0.178881 0.104396,0 0.189811,-0.0483 0.189811,-0.107329 0,-0.05903 0.05694,-0.107328 0.126537,-0.107328 0.06959,0 0.126538,-0.141449 0.126538,-0.31433 0,-0.213398 0.06094,-0.327555 0.18981,-0.355516 0.129566,-0.02811 0.189806,-0.142749 0.189806,-0.361194 0,-0.176004 0.04917,-0.337195 0.109281,-0.3582 0.14459,-0.05053 0.157745,-0.611538 0.01858,-0.793106 -0.06032,-0.07871 -0.144819,-0.263848 -0.187782,-0.411425 -0.04296,-0.147576 -0.132473,-0.268321 -0.198915,-0.268321 -0.06645,0 -0.120805,-0.1287938 -0.120805,-0.2862094 0,-0.1574148 -0.0503,-0.2862093 -0.11178,-0.2862093 -0.06148,0 -0.146093,-0.056348 -0.188032,-0.1252159 C 57.769293,9.1634247 57.304013,8.767487 56.994347,8.6137266 56.826616,8.5304406 56.689375,8.4395945 56.689375,8.4118471 c 0,-0.061976 -0.332362,-0.2548854 -0.439137,-0.2548854 -0.04267,0 -0.202579,-0.06584 -0.355332,-0.1463121 C 55.57232,7.8407105 54.954608,7.656096 54.708584,7.656096 c -0.0937,0 -0.170367,-0.048298 -0.170367,-0.1073285 0,-0.074959 -0.133569,-0.1073284 -0.442886,-0.1073284 -0.243585,0 -0.442885,-0.032199 -0.442885,-0.071552 0,-0.039352 -0.284713,-0.071552 -0.632696,-0.071552 -0.34798,0 -0.632692,-0.032199 -0.632692,-0.071552 0,-0.04089 -0.379616,-0.071552 -0.885771,-0.071552 -0.506158,0 -0.885775,0.030668 -0.885775,0.071552 0,0.039352 -0.199296,0.071552 -0.442885,0.071552 -0.243586,0 -0.442885,0.032199 -0.442885,0.071552 0,0.039352 -0.248266,0.071552 -0.5517,0.071552 -0.44077,0 -0.599468,0.035969 -0.789267,0.1788808 -0.130844,0.09852 -0.366189,0.1788808 -0.52388,0.1788808 -0.157472,0 -0.286314,0.024876 -0.286314,0.055281 0,0.030406 -0.189061,0.1128534 -0.420134,0.1832205 -0.231077,0.070367 -0.519008,0.2225824 -0.63985,0.3382564 -0.120842,0.1156747 -0.273433,0.2103173 -0.339097,0.2103173 -0.06566,0 -0.119385,0.064398 -0.119385,0.1431047 0,0.078707 -0.06101,0.1431047 -0.135577,0.1431047 -0.204959,0 -0.497118,0.1892316 -0.497118,0.3219854 0,0.064653 -0.08542,0.1658475 -0.189807,0.2248782 -0.104395,0.059031 -0.189807,0.1855248 -0.189807,0.2810988 0,0.095573 -0.05694,0.1737695 -0.12654,0.1737695 -0.0696,0 -0.126538,0.077813 -0.126538,0.1729188 0,0.0951 -0.06688,0.185524 -0.148624,0.200931 -0.208552,0.03931 -0.213184,1.766694 -0.0054,2.016699 0.240644,0.289553 0.384336,0.493462 0.470953,0.668312 0.04386,0.08855 0.132854,0.160993 0.197761,0.160993 0.06491,0 0.119822,0.07245 0.122034,0.160993 0.0046,0.184557 0.271746,0.411425 0.484446,0.411425 0.07933,0 0.144225,0.03651 0.144225,0.08112 0,0.08567 0.629138,0.419514 0.79087,0.419663 0.05219,4.8e-5 0.0949,0.04838 0.0949,0.107416 0,0.05903 0.0462,0.107328 0.102683,0.107328 0.05647,0 0.213065,0.05808 0.347981,0.129056 0.346146,0.182109 1.055368,0.371811 1.390055,0.371811 0.155853,0 0.316146,0.0483 0.356205,0.107328 0.04258,0.06274 0.232188,0.107328 0.456424,0.107328 0.210974,0 0.383589,0.0322 0.383589,0.07155 0,0.04403 0.632692,0.07155 1.645004,0.07155 1.012309,0 1.645005,-0.02752 1.645005,-0.07155 z"
       id="path385" /><path
       style="fill:#f9f9f9;stroke-width:1.79818"
       d="m 49.797169,26.406586 c -0.04529,-0.04144 -0.274925,-0.07534 -0.510297,-0.07534 -0.235373,0 -0.463143,-0.0322 -0.506155,-0.07155 -0.04301,-0.03935 -0.324996,-0.07155 -0.626624,-0.07155 -0.370755,0 -0.572016,-0.03477 -0.621255,-0.107329 -0.04006,-0.05903 -0.178087,-0.107328 -0.306728,-0.107328 -0.245532,0 -1.567462,-0.36018 -1.913315,-0.52131 -0.110935,-0.05169 -0.41524,-0.156047 -0.676225,-0.231918 -0.260986,-0.07587 -0.474522,-0.162819 -0.474522,-0.193224 0,-0.0304 -0.08542,-0.05528 -0.189807,-0.05528 -0.104396,0 -0.18981,-0.03366 -0.18981,-0.0748 0,-0.09713 -0.581712,-0.426062 -0.753479,-0.426062 -0.07276,0 -0.132291,-0.04285 -0.132291,-0.09524 0,-0.05238 -0.142355,-0.138317 -0.316349,-0.190971 -0.17399,-0.05265 -0.316344,-0.138591 -0.316344,-0.190973 0,-0.05238 -0.04399,-0.09524 -0.09776,-0.09524 -0.05377,0 -0.205094,-0.112694 -0.336274,-0.250432 -0.13118,-0.137738 -0.286486,-0.250434 -0.345121,-0.250434 -0.05863,0 -0.106618,-0.04359 -0.106618,-0.09688 0,-0.05328 -0.142355,-0.183738 -0.316345,-0.289895 -0.173994,-0.106159 -0.316349,-0.255754 -0.316349,-0.332435 0,-0.07668 -0.05694,-0.139419 -0.126538,-0.139419 -0.06959,0 -0.12654,-0.0633 -0.12654,-0.140675 0,-0.156851 -0.390027,-0.668892 -0.53779,-0.706025 -0.05219,-0.01313 -0.09491,-0.19182 -0.09491,-0.397116 0,-0.205296 -0.05075,-0.403853 -0.112776,-0.441239 -0.06202,-0.03739 -0.136839,-0.269215 -0.166248,-0.515177 l -0.05347,-0.447201 h 2.507218 2.507215 v 0.353538 c 0,0.194447 0.05694,0.373439 0.126541,0.39776 0.06959,0.02432 0.126538,0.106719 0.126538,0.183105 0,0.07638 0.05694,0.138882 0.126537,0.138882 0.06959,0 0.126542,0.09469 0.126542,0.210433 0,0.115738 0.05358,0.229163 0.119089,0.252054 0.06549,0.02289 0.246425,0.185783 0.402048,0.361984 0.155623,0.176201 0.329803,0.320365 0.387061,0.320365 0.05726,0 0.104107,0.0483 0.104107,0.107328 0,0.05903 0.06101,0.107329 0.135577,0.107329 0.175191,0 0.497118,0.182034 0.497118,0.281097 0,0.04217 0.06101,0.07666 0.135577,0.07666 0.07457,0 0.214945,0.04025 0.311954,0.08944 0.324358,0.16448 0.498921,0.231814 0.881125,0.339874 0.208791,0.05903 0.454863,0.147576 0.546829,0.196768 0.09196,0.0492 0.302141,0.08944 0.467052,0.08944 0.164914,0 0.335032,0.0322 0.378045,0.07155 0.04685,0.04286 0.874407,0.07112 2.063726,0.07047 1.950855,-10e-4 2.731312,-0.07003 3.09047,-0.27312 0.08128,-0.04596 0.250277,-0.08357 0.375551,-0.08357 0.125276,0 0.227771,-0.0322 0.227771,-0.07155 0,-0.03935 0.105912,-0.07155 0.235353,-0.07155 0.129444,0 0.342256,-0.0805 0.472919,-0.178881 0.130663,-0.09838 0.285061,-0.178881 0.343112,-0.178881 0.108863,0 0.467081,-0.180471 0.467081,-0.235313 0,-0.01699 0.1993,-0.150371 0.442888,-0.296415 0.243586,-0.146045 0.442886,-0.327641 0.442886,-0.403546 0,-0.07591 0.04271,-0.138214 0.09491,-0.138463 0.166426,-8.51e-4 0.537644,-0.433406 0.541814,-0.631429 0.0022,-0.105034 0.08763,-0.253472 0.18981,-0.329862 0.102185,-0.07639 0.185783,-0.2267 0.185783,-0.334022 0,-0.433233 -0.07479,-0.421489 2.684393,-0.421489 2.365181,0 2.524029,0.0082 2.427673,0.125216 -0.05671,0.06887 -0.124514,0.382572 -0.150677,0.697116 -0.02618,0.314546 -0.107938,0.592996 -0.181711,0.618777 -0.166233,0.0581 -0.47288,0.54385 -0.475452,0.753162 -9.63e-4,0.08526 -0.0482,0.165763 -0.104789,0.178879 -0.05659,0.01312 -0.318489,0.272104 -0.582004,0.575524 -0.263517,0.30342 -0.558873,0.589099 -0.65635,0.634844 -0.09748,0.04575 -0.177227,0.10895 -0.177227,0.140458 0,0.0315 -0.15659,0.149181 -0.347981,0.261496 -0.19139,0.112314 -0.613247,0.364329 -0.937458,0.560035 -0.648798,0.391631 -0.760698,0.446835 -1.311895,0.6472 -0.206983,0.07524 -0.477606,0.188602 -0.601384,0.251919 -0.123782,0.06332 -0.550848,0.207444 -0.949039,0.320287 -0.398197,0.112841 -0.742968,0.230337 -0.766168,0.261099 -0.02321,0.03077 -0.210047,0.05594 -0.415223,0.05594 -0.214862,0 -0.403926,0.04551 -0.445878,0.107328 -0.04945,0.07287 -0.251334,0.107329 -0.628724,0.107329 -0.305737,0 -0.555885,0.02895 -0.555885,0.06435 0,0.09203 -0.951922,0.157022 -2.86715,0.195761 -1.091992,0.02209 -1.69337,0.0077 -1.747375,-0.04166 z"
       id="path387" /><path
       style="fill:#f9f9f9;stroke-width:1.79818"
       d="m 78.654185,17.969058 c -0.03735,-0.03417 -0.339651,-0.08298 -0.671796,-0.108464 -0.625333,-0.04799 -1.483493,-0.195608 -1.634936,-0.281244 -0.0477,-0.02697 -0.219587,-0.04904 -0.38198,-0.04904 -0.162391,0 -0.295256,-0.03003 -0.295256,-0.06673 0,-0.0367 -0.128121,-0.08702 -0.284714,-0.111826 -0.456437,-0.07229 -0.90932,-0.207593 -1.018596,-0.304305 -0.05566,-0.04925 -0.169541,-0.08963 -0.253079,-0.08972 -0.08354,-9.3e-5 -0.351184,-0.09661 -0.594772,-0.214489 -0.243586,-0.11788 -0.478944,-0.2144 -0.523013,-0.214492 -0.147838,-3.12e-4 -1.881225,-1.02363 -1.881225,-1.110598 0,-0.04725 -0.142354,-0.146364 -0.316348,-0.220248 -0.17399,-0.07388 -0.316345,-0.185476 -0.316345,-0.247982 0,-0.06251 -0.142357,-0.189272 -0.316348,-0.2817 -0.17399,-0.09243 -0.316348,-0.211171 -0.316348,-0.263876 0,-0.09687 -0.04011,-0.152332 -0.421473,-0.582662 -0.116173,-0.131089 -0.211219,-0.284032 -0.211219,-0.339873 0,-0.05584 -0.05694,-0.10153 -0.126541,-0.10153 -0.0696,0 -0.126537,-0.159092 -0.126537,-0.353538 0,-0.194447 -0.05296,-0.372047 -0.117682,-0.394666 -0.06473,-0.02262 -0.156702,-0.217711 -0.204389,-0.433536 -0.04769,-0.215826 -0.137088,-0.39241 -0.198666,-0.39241 -0.147557,0 -0.145527,-1.053108 0.0022,-1.10471 0.06275,-0.02193 0.153764,-0.233177 0.202257,-0.469441 0.04849,-0.2362637 0.139509,-0.4475123 0.202258,-0.4694416 0.06275,-0.021931 0.114095,-0.1648638 0.114095,-0.3176341 0,-0.1527695 0.05694,-0.2976628 0.126538,-0.3219848 0.06959,-0.024319 0.126541,-0.1090189 0.126541,-0.1882146 0,-0.079196 0.08542,-0.1922905 0.189806,-0.2513212 0.104397,-0.059031 0.189807,-0.1694254 0.189807,-0.2453219 0,-0.075897 0.05694,-0.1379941 0.126541,-0.1379941 0.0696,0 0.126538,-0.077813 0.126538,-0.1729181 0,-0.095105 0.04271,-0.1836505 0.0949,-0.1967683 0.0522,-0.013115 0.378441,-0.2630869 0.724988,-0.5554867 0.607759,-0.5127963 2.24521,-1.5076049 2.481513,-1.5076049 0.06333,0 0.115148,-0.032198 0.115148,-0.071552 0,-0.039354 0.08719,-0.071552 0.193779,-0.071552 0.106583,0 0.226556,-0.048298 0.266617,-0.1073285 0.04006,-0.059031 0.152157,-0.1073285 0.249103,-0.1073285 0.09695,0 0.176273,-0.032198 0.176273,-0.071552 0,-0.039353 0.10914,-0.071552 0.242532,-0.071552 0.13339,0 0.261511,-0.024149 0.284711,-0.053664 0.05938,-0.07554 1.398281,-0.4496749 1.604391,-0.4483207 0.09365,6.234e-4 0.321428,-0.043257 0.506157,-0.097493 0.703118,-0.2064357 0.992986,-0.2544974 1.791068,-0.2969654 1.74685,-0.092955 4.866366,-0.022771 5.118492,0.1151573 0.06612,0.036169 0.226777,0.065763 0.357021,0.065763 0.130247,0 0.322225,0.048298 0.42662,0.1073283 0.104395,0.059031 0.324734,0.1073285 0.489645,0.1073285 0.164914,0 0.335033,0.032198 0.378048,0.071552 0.04301,0.039354 0.18873,0.071552 0.323813,0.071552 0.135086,0 0.245973,0.024149 0.246411,0.053664 8.75e-4,0.071981 0.73269,0.3040972 0.958496,0.3040972 0.09876,0 0.179554,0.032199 0.179554,0.071552 0,0.039354 0.07932,0.071552 0.176269,0.071552 0.09695,0 0.209046,0.048298 0.249107,0.1073285 0.04006,0.059031 0.160038,0.1073285 0.266622,0.1073285 0.106583,0 0.193777,0.032198 0.193777,0.071552 0,0.039354 0.05163,0.071552 0.114827,0.071552 0.115911,0 1.783258,0.914142 1.783258,0.9776923 0,0.064954 0.361839,0.2386969 0.497114,0.2386969 0.07455,0 0.135581,0.058325 0.135581,0.1296126 0,0.071287 0.106917,0.1945064 0.237598,0.2738219 0.130672,0.079315 0.276868,0.2141805 0.32487,0.2997008 0.04804,0.085521 0.140385,0.1554921 0.205293,0.1554921 0.06493,0 0.118011,0.080497 0.118011,0.1788808 0,0.098385 0.05075,0.1788808 0.112822,0.1788808 0.06204,0 0.148549,0.080497 0.19222,0.1788808 0.04366,0.098385 0.135249,0.1788809 0.203525,0.1788809 0.06825,0 0.124128,0.1126949 0.124128,0.2504331 0,0.1377382 0.05049,0.2504332 0.112166,0.2504332 0.113811,0 0.142196,0.058462 0.399569,0.8228511 0.181939,0.5403578 0.09377,2.7271988 -0.114704,2.8450838 -0.07919,0.04477 -0.143964,0.153561 -0.143964,0.241752 0,0.08819 -0.05696,0.180248 -0.126542,0.20457 -0.06956,0.02432 -0.126543,0.137017 -0.126543,0.250433 0,0.113416 -0.05338,0.224851 -0.118518,0.247632 -0.155619,0.05438 -0.514168,0.463174 -0.514168,0.586212 0,0.05299 -0.05311,0.09634 -0.118011,0.09634 -0.06493,0 -0.158331,0.07182 -0.207603,0.159609 -0.20517,0.365533 -2.34703,1.840417 -2.679687,1.845228 -0.05215,7.86e-4 -0.322674,0.113804 -0.601056,0.25122 -0.278391,0.137415 -0.605809,0.267761 -0.727604,0.289658 -0.121795,0.0219 -0.221442,0.06984 -0.221442,0.106542 0,0.0367 -0.08542,0.06673 -0.189806,0.06673 -0.104397,0 -0.189812,0.0322 -0.189812,0.07155 0,0.03935 -0.135384,0.07155 -0.300852,0.07155 -0.165468,0 -0.37174,0.0483 -0.458381,0.107329 -0.08664,0.05903 -0.26521,0.107328 -0.396825,0.107328 -0.131615,0 -0.366649,0.03723 -0.522297,0.08272 -0.568471,0.166172 -0.684532,0.186841 -1.33185,0.237183 -0.362527,0.02819 -0.691031,0.08044 -0.730016,0.11611 -0.09069,0.08298 -3.94105,0.08558 -4.031607,0.0027 z m 3.737241,-2.852542 c 0.339921,-0.06827 0.618042,-0.148764 0.618042,-0.178881 0,-0.03012 0.142663,-0.05476 0.317033,-0.05476 0.37688,0 1.834126,-0.497272 1.834126,-0.625879 0,-0.04931 0.06257,-0.08964 0.139041,-0.08964 0.131808,0 0.455181,-0.177226 1.094714,-0.599965 0.15659,-0.103509 0.284711,-0.252351 0.284711,-0.330759 0,-0.07841 0.04271,-0.142764 0.09491,-0.143012 0.16977,-7.86e-4 0.537787,-0.435356 0.537787,-0.635007 0,-0.107002 0.06979,-0.234013 0.1551,-0.282249 0.258915,-0.146408 0.29612,-1.526469 0.04871,-1.806908 -0.112094,-0.127058 -0.203813,-0.308163 -0.203813,-0.4024557 0,-0.2038598 -0.334472,-0.5936476 -0.509404,-0.5936476 -0.06781,0 -0.123289,-0.066697 -0.123289,-0.148216 0,-0.081518 -0.07118,-0.1906452 -0.158173,-0.2425045 C 86.433934,8.9307712 86.248863,8.7989615 86.109668,8.68972 85.638428,8.3198831 84.713955,7.8880233 83.995516,7.7021144 83.737485,7.6353444 83.49212,7.5493768 83.450257,7.5110765 c -0.04186,-0.038298 -0.240217,-0.069637 -0.440792,-0.069637 -0.200573,0 -0.399872,-0.032199 -0.442885,-0.071552 -0.04302,-0.039352 -0.327727,-0.071552 -0.632695,-0.071552 -0.304969,0 -0.589681,-0.032199 -0.632692,-0.071552 -0.04302,-0.039352 -0.3562,-0.071552 -0.695965,-0.071552 -0.339768,0 -0.652952,0.032199 -0.695964,0.071552 -0.04301,0.039352 -0.327725,0.071552 -0.632695,0.071552 -0.304969,0 -0.58968,0.032199 -0.632694,0.071552 -0.04301,0.039352 -0.243083,0.071552 -0.444602,0.071552 -0.222105,0 -0.490979,0.070446 -0.682743,0.1788808 -0.173993,0.098384 -0.426728,0.1788808 -0.561638,0.1788808 -0.134911,0 -0.278068,0.048298 -0.318128,0.1073285 -0.04006,0.059031 -0.151302,0.1073278 -0.247205,0.1073278 -0.194883,0 -0.901563,0.3702205 -1.288772,0.6751706 -0.139189,0.109623 -0.310155,0.2359947 -0.379919,0.2808265 -0.130629,0.083944 -0.43624,0.4329147 -0.682337,0.7791463 -0.07692,0.1082231 -0.21104,0.2820952 -0.298035,0.3863832 -0.225626,0.270475 -0.212988,1.869807 0.01693,2.142677 0.25909,0.307489 0.366017,0.471575 0.450155,0.690793 0.04154,0.108223 0.131383,0.196769 0.199654,0.196769 0.06828,0 0.124128,0.05266 0.124128,0.117012 0,0.06436 0.142355,0.191612 0.316345,0.282792 0.173994,0.09118 0.316349,0.187721 0.316349,0.214537 0,0.06192 0.664202,0.387187 0.790869,0.387304 0.0522,4.8e-5 0.09491,0.04043 0.09491,0.08973 0,0.128607 1.457245,0.625879 1.834127,0.625879 0.174367,0 0.317034,0.0322 0.317034,0.07155 0,0.03935 0.09965,0.07269 0.221442,0.07409 0.121795,0.0014 0.363801,0.04855 0.537791,0.104793 0.472523,0.15274 2.639861,0.142131 3.431199,-0.01679 z"
       id="path389" /></g></svg>
